<svg xmlns="http://www.w3.org/2000/svg" version="1.1" xmlns:xlink="http://www.w3.org/1999/xlink" width="1000" height="1000"><g clip-path="url(#SvgjsClipPath1033)"><rect width="1000" height="1000" fill="#ffffff"></rect><g transform="matrix(12.5,0,0,12.5,100,0)"><svg xmlns="http://www.w3.org/2000/svg" version="1.1" xmlns:xlink="http://www.w3.org/1999/xlink" width="64" height="80"><svg xmlns="http://www.w3.org/2000/svg" viewBox="0 0 64 80" x="0px" y="0px"><g data-name="Layer 45"><path d="M59,57V49a1,1,0,0,0-2,0v4.35L33.16,13.07l2.7-4.56a1,1,0,1,0-1.72-1.02L32,11.11,29.86,7.49a1,1,0,1,0-1.72,1.02l2.7,4.56L7,53.35V49a1,1,0,0,0-2,0v8a.9864.9864,0,0,0,.0725.3591c.0061.0158.0106.0315.0175.047.0077.0175.0114.0366.02.0539.01.02.01.03.02.04s.02.03.03.04c.0168.0263.0472.0444.0671.0695a.9756.9756,0,0,0,.1474.1525c.0244.0208.04.0492.0655.068a.8265.8265,0,0,0,.13.07l.0187.0065c.0229.01.047.016.0708.0247A.9955.9955,0,0,0,6,58H21.39l1.02-2,8.7-16.96a.9722.9722,0,0,1,.5-.46.6033.6033,0,0,1,.19-.06,1.0238,1.0238,0,0,1,.64.08.031.031,0,0,0,.02.01,1.0376,1.0376,0,0,1,.44.44L41.59,56l1.02,2H58a.9961.9961,0,0,0,.3406-.0688c.0238-.0087.0478-.0143.0707-.0247L58.43,57.9a.8265.8265,0,0,0,.13-.07c.0258-.0188.0411-.0472.0655-.068a.9756.9756,0,0,0,.1474-.1525c.02-.0251.05-.0432.0671-.0695.01-.01.02-.03.03-.04s.01-.02.02-.04c.0086-.0173.0123-.0364.02-.0539.0069-.0155.0114-.0312.0175-.047A.9864.9864,0,0,0,59,57Z"></path><polygon points="32 41.69 24.66 56 23.64 58 40.36 58 39.34 56 32 41.69"></polygon></g><text x="0" y="79" fill="#000000" font-size="5px" font-weight="bold" font-family="'Helvetica Neue', Helvetica, Arial-Unicode, Arial, Sans-serif">Created by Yosua Bungaran</text><text x="0" y="84" fill="#000000" font-size="5px" font-weight="bold" font-family="'Helvetica Neue', Helvetica, Arial-Unicode, Arial, Sans-serif">from the Noun Project</text></svg></svg></g></g><defs><clipPath id="SvgjsClipPath1033"><rect width="1000" height="1000" x="0" y="0" rx="500" ry="500"></rect></clipPath></defs></svg>